<svg width="555" height="718" viewBox="0 0 555 718" fill="none" xmlns="http://www.w3.org/2000/svg">
<path fill-rule="evenodd" clip-rule="evenodd" d="M554.191 716.322C516.792 718.707 502.426 717.06 498.184 697.168C352.084 707.119 402.384 607.622 380.27 573.355C369.601 524.789 326.15 499.036 263.831 486.394C162.294 311.966 69.9515 145.85 0 0L331.637 445.126C363.692 484.919 389.119 481.05 424.488 540.342C458.142 552.486 559.353 535.219 527.662 672.105C519.004 694.4 532.269 701.037 554.191 716.322ZM293.951 436.009C293.951 426.69 286.404 419.144 277.095 419.144C267.787 419.144 260.24 426.69 260.24 436.009C260.24 445.318 267.787 452.865 277.095 452.865C286.404 452.865 293.951 445.318 293.951 436.009ZM512.913 626.843C512.913 599.079 490.398 576.563 462.624 576.563C434.86 576.563 412.344 599.079 412.344 626.843C412.344 654.617 434.86 677.133 462.624 677.133C490.398 677.133 512.913 654.617 512.913 626.843Z" fill="black"/>
</svg>
