<svg width="555" height="718" viewBox="0 0 555 718" fill="none" xmlns="http://www.w3.org/2000/svg">
<path fill-rule="evenodd" clip-rule="evenodd" d="M26.5287 672.105C-5.1621 535.219 96.0492 552.486 129.703 540.342C165.081 481.05 190.509 484.919 222.563 445.126L554.191 0C484.249 145.85 391.906 311.966 290.36 486.394C228.051 499.036 184.59 524.789 173.921 573.355C151.817 607.622 202.116 707.119 56.0071 697.168C51.774 717.06 37.3987 718.707 0 716.322C21.9221 701.037 35.1864 694.4 26.5287 672.105ZM277.095 452.865C286.404 452.865 293.951 445.318 293.951 436.009C293.951 426.69 286.404 419.144 277.095 419.144C267.787 419.144 260.24 426.69 260.24 436.009C260.24 445.318 267.787 452.865 277.095 452.865ZM91.567 677.133C119.341 677.133 141.847 654.617 141.847 626.843C141.847 599.079 119.341 576.563 91.567 576.563C63.7933 576.563 41.287 599.079 41.287 626.843C41.287 654.617 63.7933 677.133 91.567 677.133Z" fill="black"/>
</svg>
