<svg width="200" height="48" viewBox="0 0 200 48" fill="none" xmlns="http://www.w3.org/2000/svg">
<path d="M89.6705 17.5455L93.8892 30.8068H94.0511L98.2784 17.5455H102.369L96.3523 35H91.5966L85.571 17.5455H89.6705ZM105.158 35H101.204L107.229 17.5455H111.985L118.002 35H114.048L109.675 21.5341H109.539L105.158 35ZM104.911 28.1392H114.252V31.0199H104.911V28.1392ZM120.103 35V17.5455H126.989C128.308 17.5455 129.433 17.7812 130.364 18.2528C131.302 18.7187 132.015 19.3807 132.504 20.2386C132.998 21.0909 133.245 22.0937 133.245 23.2472C133.245 24.4062 132.995 25.4034 132.495 26.2386C131.995 27.0682 131.271 27.7045 130.322 28.1477C129.379 28.5909 128.237 28.8125 126.896 28.8125H122.285V25.8466H126.299C127.004 25.8466 127.589 25.75 128.055 25.5568C128.521 25.3636 128.867 25.0739 129.094 24.6875C129.327 24.3011 129.444 23.821 129.444 23.2472C129.444 22.6676 129.327 22.179 129.094 21.7812C128.867 21.3835 128.518 21.0824 128.046 20.8778C127.58 20.6676 126.992 20.5625 126.282 20.5625H123.793V35H120.103ZM129.529 27.0568L133.867 35H129.793L125.549 27.0568H129.529ZM145.322 22.5653C145.254 21.8778 144.961 21.3437 144.444 20.9631C143.927 20.5824 143.225 20.392 142.339 20.392C141.737 20.392 141.228 20.4773 140.813 20.6477C140.398 20.8125 140.08 21.0426 139.859 21.3381C139.643 21.6335 139.535 21.9688 139.535 22.3438C139.523 22.6562 139.589 22.929 139.731 23.1619C139.879 23.3949 140.08 23.5966 140.336 23.767C140.592 23.9318 140.887 24.0767 141.222 24.2017C141.558 24.321 141.915 24.4233 142.296 24.5085L143.864 24.8835C144.626 25.054 145.325 25.2812 145.961 25.5653C146.597 25.8494 147.148 26.1989 147.614 26.6136C148.08 27.0284 148.441 27.517 148.697 28.0795C148.958 28.642 149.092 29.2869 149.097 30.0142C149.092 31.0824 148.819 32.0085 148.279 32.7926C147.745 33.571 146.972 34.1761 145.961 34.608C144.955 35.0341 143.742 35.2472 142.322 35.2472C140.913 35.2472 139.685 35.0312 138.64 34.5994C137.6 34.1676 136.788 33.5284 136.202 32.6818C135.623 31.8295 135.319 30.7756 135.29 29.5199H138.862C138.901 30.1051 139.069 30.5937 139.364 30.9858C139.665 31.3722 140.066 31.6648 140.566 31.8636C141.072 32.0568 141.643 32.1534 142.279 32.1534C142.904 32.1534 143.447 32.0625 143.907 31.8807C144.373 31.6989 144.734 31.446 144.989 31.1222C145.245 30.7983 145.373 30.4261 145.373 30.0057C145.373 29.6136 145.256 29.2841 145.023 29.017C144.796 28.75 144.461 28.5227 144.018 28.3352C143.58 28.1477 143.043 27.9773 142.407 27.8239L140.506 27.3466C139.035 26.9886 137.873 26.429 137.021 25.6676C136.168 24.9062 135.745 23.8807 135.751 22.5909C135.745 21.5341 136.026 20.6108 136.594 19.821C137.168 19.0312 137.955 18.4148 138.955 17.9716C139.955 17.5284 141.092 17.3068 142.364 17.3068C143.66 17.3068 144.79 17.5284 145.756 17.9716C146.728 18.4148 147.484 19.0312 148.023 19.821C148.563 20.6108 148.842 21.5256 148.859 22.5653H145.322Z" fill="black"/>
<path fill-rule="evenodd" clip-rule="evenodd" d="M50.561 34.186C49.2329 28.4495 53.4744 29.1731 54.8847 28.6642C56.3673 26.1794 57.4329 26.3416 58.7762 24.674L72.6737 6.02002C69.7427 12.1322 65.8729 19.0936 61.6173 26.4034C59.0062 26.9332 57.1848 28.0124 56.7377 30.0476C55.8114 31.4837 57.9193 35.6533 51.7963 35.2363C51.6189 36.0699 51.0165 36.1389 49.4492 36.039C50.3679 35.3984 50.9238 35.1203 50.561 34.186ZM61.0615 24.9983C61.4516 24.9983 61.7679 24.682 61.7679 24.2919C61.7679 23.9014 61.4516 23.5851 61.0615 23.5851C60.6714 23.5851 60.3551 23.9014 60.3551 24.2919C60.3551 24.682 60.6714 24.9983 61.0615 24.9983ZM53.2865 34.3967C54.4504 34.3967 55.3936 33.4531 55.3936 32.2892C55.3936 31.1257 54.4504 30.1821 53.2865 30.1821C52.1226 30.1821 51.1794 31.1257 51.1794 32.2892C51.1794 33.4531 52.1226 34.3967 53.2865 34.3967Z" fill="black"/>
<path fill-rule="evenodd" clip-rule="evenodd" d="M72.6737 36.039C71.1065 36.1389 70.5044 36.0699 70.3266 35.2363C64.204 35.6533 66.3119 31.4837 65.3852 30.0476C64.9381 28.0124 63.1172 26.9332 60.5056 26.4034C56.2505 19.0936 52.3807 12.1322 49.4492 6.02002L63.3472 24.674C64.6905 26.3416 65.7561 26.1794 67.2383 28.6642C68.6486 29.1731 72.8901 28.4495 71.562 34.186C71.1992 35.1203 71.755 35.3984 72.6737 36.039ZM61.7679 24.2919C61.7679 23.9014 61.4516 23.5851 61.0615 23.5851C60.6714 23.5851 60.3551 23.9014 60.3551 24.2919C60.3551 24.682 60.6714 24.9983 61.0615 24.9983C61.4516 24.9983 61.7679 24.682 61.7679 24.2919ZM70.9439 32.2892C70.9439 31.1257 70.0003 30.1821 68.8364 30.1821C67.6729 30.1821 66.7293 31.1257 66.7293 32.2892C66.7293 33.4531 67.6729 34.3967 68.8364 34.3967C70.0003 34.3967 70.9439 33.4531 70.9439 32.2892Z" fill="black"/>
<path fill-rule="evenodd" clip-rule="evenodd" d="M70.8454 31.7032L70.8329 31.7161C70.1984 32.5938 69.4491 33.3825 68.6059 34.0604L61.0625 41.9999L53.253 33.8396C52.6277 33.3066 52.0582 32.7114 51.5529 32.0628L51.2085 31.7032C51.2736 31.7602 51.3386 31.8167 51.4036 31.8726C49.9005 29.8622 49.0107 27.367 49.0107 24.664C49.0107 18.0076 54.4065 12.6118 61.0625 12.6118C67.7189 12.6118 73.1146 18.0076 73.1146 24.664C73.1146 27.2956 72.2686 29.7286 70.8366 31.7109C70.8395 31.7082 70.8424 31.7056 70.8454 31.7032ZM52.0297 24.664C52.0297 29.6523 56.0737 33.6967 61.0625 33.6967C66.0513 33.6967 70.0957 29.6523 70.0957 24.664C70.0957 19.6752 66.0513 15.6308 61.0625 15.6308C56.0737 15.6308 52.0297 19.6752 52.0297 24.664Z" fill="black"/>
</svg>
